<svg xmlns="http://www.w3.org/2000/svg" width="512" height="512" viewBox="0 0 512 512">
<g>
<path d="M 354.57 458.75 L 353.87 461.00 L 201.83 461.00 C57.43,461.00 49.82,460.91 50.49,459.25 C51.80,455.96 64.18,421.51 69.99,405.00 C73.17,395.92 78.95,379.73 82.81,369.00 C86.68,358.27 93.51,339.15 97.99,326.50 C102.47,313.85 111.47,288.65 117.99,270.50 C124.51,252.35 133.45,227.38 137.86,215.00 C142.27,202.62 149.10,183.50 153.04,172.50 C156.97,161.50 161.69,148.23 163.53,143.00 C165.36,137.77 167.98,130.35 169.35,126.50 C180.37,95.42 183.75,85.92 187.67,75.00 C190.14,68.12 193.06,59.91 194.17,56.75 L 196.18 51.00 L 248.59 51.00 C289.85,51.00 301.00,51.27 300.99,52.25 C300.99,52.94 298.91,58.45 296.38,64.50 C293.84,70.55 290.98,77.53 290.02,80.00 C287.98,85.23 280.33,103.88 260.49,152.00 C238.67,204.91 221.22,247.35 216.28,259.50 C213.82,265.55 208.20,279.27 203.79,290.00 C194.62,312.29 186.77,331.44 178.63,351.32 C175.51,358.92 173.23,365.56 173.54,366.07 C173.89,366.63 216.72,367.00 282.43,367.00 L 390.75 367.00 L 385.41 380.25 C376.90,401.39 355.33,456.28 354.57,458.75 Z" fill="rgb(1,1,1)"/>
<path d="M 423.72 127.00 L 422.42 129.50 L 374.46 129.54 C348.08,129.57 316.75,129.34 304.84,129.04 L 283.18 128.50 L 285.48 123.00 C286.74,119.97 292.12,106.93 297.42,94.00 C302.73,81.07 308.93,66.11 311.20,60.75 L 315.32 51.00 L 388.16 51.00 C428.22,51.00 461.00,51.14 461.00,51.30 C461.00,51.59 426.56,121.51 423.72,127.00 ZM 330.51 269.00 L 326.11 278.50 L 274.62 278.76 C246.30,278.90 222.92,278.68 222.66,278.26 C222.40,277.84 224.58,271.65 227.50,264.50 C230.42,257.35 237.50,240.02 243.23,226.00 L 253.65 200.50 L 307.90 200.24 C361.34,199.99 362.13,200.01 361.52,201.94 C361.18,203.02 355.05,216.41 347.90,231.70 C340.75,246.99 332.93,263.77 330.51,269.00 Z" fill="rgb(194,37,43)"/>
<path d="M 0.00 256.00 L 0.00 0.00 L 256.00 0.00 L 512.00 0.00 L 512.00 256.00 L 512.00 512.00 L 256.00 512.00 L 0.00 512.00 L 0.00 256.00 ZM 354.57 458.75 C355.33,456.28 376.90,401.39 385.41,380.25 L 390.75 367.00 L 282.43 367.00 C216.72,367.00 173.89,366.63 173.54,366.07 C173.23,365.56 175.51,358.92 178.63,351.32 C186.77,331.44 194.62,312.29 203.79,290.00 C208.20,279.27 213.82,265.55 216.28,259.50 C221.22,247.35 238.67,204.91 260.49,152.00 C280.33,103.88 287.98,85.23 290.02,80.00 C290.98,77.53 293.84,70.55 296.38,64.50 C298.91,58.45 300.99,52.94 300.99,52.25 C301.00,51.27 289.85,51.00 248.59,51.00 L 196.18 51.00 L 194.17 56.75 C193.06,59.91 190.14,68.12 187.67,75.00 C183.75,85.92 180.37,95.42 169.35,126.50 C167.98,130.35 165.36,137.77 163.53,143.00 C161.69,148.23 156.97,161.50 153.04,172.50 C149.10,183.50 142.27,202.62 137.86,215.00 C133.45,227.38 124.51,252.35 117.99,270.50 C111.47,288.65 102.47,313.85 97.99,326.50 C93.51,339.15 86.68,358.27 82.81,369.00 C78.95,379.73 73.17,395.92 69.99,405.00 C64.18,421.51 51.80,455.96 50.49,459.25 C49.82,460.91 57.43,461.00 201.83,461.00 L 353.87 461.00 L 354.57 458.75 ZM 330.51 269.00 C332.93,263.77 340.75,246.99 347.90,231.70 C355.05,216.41 361.18,203.02 361.52,201.94 C362.13,200.01 361.34,199.99 307.90,200.24 L 253.65 200.50 L 243.23 226.00 C237.50,240.02 230.42,257.35 227.50,264.50 C224.58,271.65 222.40,277.84 222.66,278.26 C222.92,278.68 246.30,278.90 274.62,278.76 L 326.11 278.50 L 330.51 269.00 ZM 423.72 127.00 C426.56,121.51 461.00,51.59 461.00,51.30 C461.00,51.14 428.22,51.00 388.16,51.00 L 315.32 51.00 L 311.20 60.75 C308.93,66.11 302.73,81.07 297.42,94.00 C292.12,106.93 286.74,119.97 285.48,123.00 L 283.18 128.50 L 304.84 129.04 C316.75,129.34 348.08,129.57 374.46,129.54 L 422.42 129.50 L 423.72 127.00 Z" fill="rgb(252,253,248)"/>
</g>
</svg>